<svg width="2017" height="443" viewBox="0 0 2017 443" fill="none" xmlns="http://www.w3.org/2000/svg">
<path d="M1815.1 77.8102L1813.88 173.289H1838.21C1854.83 172.883 1869.63 172.68 1882.6 172.68C1895.57 172.68 1909.97 172.883 1925.78 173.289H1928.82C1933.68 173.289 1938.35 173.491 1942.81 173.897C1947.67 173.897 1952.33 173.897 1956.79 173.897C1961.66 174.302 1966.32 175.113 1970.78 176.329C1975.24 177.14 1979.7 178.154 1984.16 179.37C1991.05 181.803 1996.73 185.451 2001.19 190.317C2005.24 195.587 2007.27 201.466 2007.27 207.953C2007.27 209.98 2007.27 212.412 2007.27 215.25C2007.27 217.683 2006.86 219.913 2006.05 221.94C2005.24 226.4 2002.61 230.454 1998.15 234.103C1996.12 236.941 1992.27 238.968 1986.59 240.184C1981.32 241.806 1976.05 242.82 1970.78 243.225C1965.11 244.441 1959.43 245.049 1953.75 245.049H1925.17L1812.66 245.658L1811.45 364.854L1932.47 366.07H1961.05C1964.29 366.07 1967.34 366.07 1970.17 366.07C1973.01 366.07 1975.65 366.273 1978.08 366.678C1981.32 367.489 1984.16 368.097 1986.59 368.502C1989.43 368.502 1992.07 368.908 1994.5 369.719C1999.36 371.34 2003.42 373.57 2006.66 376.408C2010.72 380.463 2013.35 384.72 2014.57 389.179C2014.97 391.206 2015.18 393.436 2015.18 395.869C2015.58 397.896 2015.58 400.126 2015.18 402.558C2015.18 409.045 2013.15 414.924 2009.09 420.194C2004.23 425.87 1998.55 429.519 1992.07 431.141C1983.55 434.79 1974.23 436.614 1964.09 436.614C1959.63 437.02 1954.97 437.223 1950.1 437.223C1945.24 437.223 1940.58 437.425 1936.12 437.831H1932.47C1900.84 438.641 1868.01 438.641 1833.95 437.831C1825.84 437.831 1819.35 437.628 1814.49 437.223C1809.62 437.223 1805.16 437.223 1801.11 437.223C1797.46 437.223 1793.61 437.223 1789.55 437.223C1785.5 437.223 1780.23 437.223 1773.74 437.223C1764.42 438.033 1756.72 436.412 1750.63 432.357C1746.17 429.519 1742.73 425.668 1740.3 420.803C1739.08 419.586 1738.47 418.37 1738.47 417.154C1738.07 416.343 1737.66 415.735 1737.25 415.329C1736.85 414.924 1736.44 414.316 1736.04 413.505C1735.23 411.478 1734.62 409.451 1734.21 407.424C1733.81 404.991 1733.61 402.761 1733.61 400.734C1733.2 398.707 1732.79 396.68 1732.39 394.653C1732.39 392.625 1732.19 390.598 1731.78 388.571V378.841C1731.78 377.219 1731.78 375.597 1731.78 373.976C1732.19 372.354 1732.39 370.732 1732.39 369.111V321.675L1733.61 234.103V153.22C1733.61 138.624 1733.61 125.651 1733.61 114.299C1734.01 102.947 1734.42 90.5812 1734.82 77.2021V74.1614C1735.23 69.7017 1735.43 65.6474 1735.43 61.9985C1735.84 57.9442 1736.04 53.89 1736.04 49.8357C1736.44 41.7271 1738.67 33.8212 1742.73 26.1181C1744.35 22.8747 1745.97 20.0367 1747.59 17.6041C1749.62 15.1715 1752.26 13.1444 1755.5 11.5227C1761.58 7.87382 1767.86 6.0494 1774.35 6.0494C1777.59 6.0494 1780.03 6.25211 1781.65 6.65754V6.0494C1788.95 6.0494 1794.83 6.0494 1799.28 6.0494C1803.74 6.0494 1808 6.0494 1812.06 6.0494C1816.52 6.0494 1821.18 6.0494 1826.04 6.0494C1830.91 5.64397 1837.6 5.44126 1846.11 5.44126C1862.33 5.03583 1877.74 4.83313 1892.33 4.83313C1906.93 4.83313 1921.93 5.03583 1937.33 5.44126H1939.77C1944.23 5.84668 1948.89 6.0494 1953.75 6.0494C1958.62 6.0494 1963.28 6.25211 1967.74 6.65754C1972.2 6.65754 1976.66 7.26568 1981.12 8.48197C1985.58 9.29282 1990.04 10.5091 1994.5 12.1308C2001.39 14.158 2007.07 17.6041 2011.53 22.4692C2015.18 28.1452 2017 33.8212 2017 39.4972C2017 41.9298 2017 44.3624 2017 46.7949C2017 48.8221 2016.59 50.8493 2015.78 52.8764C2015.38 56.9307 2012.95 61.1877 2008.49 65.6474C2006.86 66.4582 2005.04 67.4718 2003.01 68.6881C2001.39 69.9044 1999.36 70.9179 1996.93 71.7288C1994.5 72.5397 1991.86 73.1478 1989.03 73.5532C1986.59 73.5532 1984.16 73.7559 1981.73 74.1614C1978.48 74.9722 1975.44 75.3777 1972.61 75.3777C1970.17 75.3777 1967.34 75.3777 1964.09 75.3777H1936.73L1815.1 75.9858V77.8102Z" fill="#0EA5E9"/>
<path d="M1681.95 389.179C1682.76 391.206 1683.16 394.247 1683.16 398.301C1683.16 401.95 1683.16 404.991 1683.16 407.424C1683.16 410.667 1682.55 413.708 1681.34 416.546C1680.12 419.384 1678.5 422.019 1676.47 424.452C1672.82 429.317 1667.55 432.966 1660.66 435.398C1650.93 438.642 1641.81 440.263 1633.3 440.263C1628.84 440.669 1624.17 440.871 1619.31 440.871C1614.44 440.871 1609.58 441.277 1604.71 442.088H1602.28C1571.06 442.493 1538.83 442.493 1505.59 442.088C1497.48 441.682 1488.35 441.682 1478.22 442.088C1468.08 442.899 1458.15 442.696 1448.42 441.48C1438.69 440.669 1429.77 438.439 1421.66 434.79C1413.96 430.736 1408.49 424.452 1405.24 415.938C1404.43 413.91 1403.82 412.086 1403.42 410.464C1403.01 408.437 1402.81 406.41 1402.81 404.383C1401.19 390.598 1400.58 377.016 1400.98 363.637C1401.39 350.258 1401.59 337.082 1401.59 324.108L1402.81 235.927V154.436C1402.81 139.841 1402.81 126.867 1402.81 115.515C1403.21 104.163 1403.62 91.5948 1404.03 77.8103V74.7695C1404.43 70.7153 1404.63 66.661 1404.63 62.6067C1405.04 58.5524 1405.24 54.4981 1405.24 50.4439C1406.05 41.119 1408.28 33.2132 1411.93 26.7263C1414.36 20.6449 1418.62 15.7797 1424.7 12.1309C1429.97 8.48202 1436.26 6.65759 1443.55 6.65759C1446.39 6.65759 1449.03 6.8603 1451.46 7.26572C1454.3 7.26572 1456.93 7.46845 1459.37 7.8739C1461.8 8.27932 1464.03 9.09016 1466.06 10.3064C1468.49 11.5227 1470.92 13.1444 1473.35 15.1716C1475.79 18.0096 1478.02 21.4557 1480.04 25.51C1481.67 29.9697 1482.68 34.4294 1483.08 38.8892C1483.49 41.7272 1483.89 44.3624 1484.3 46.795C1484.71 49.2276 1484.91 51.6602 1484.91 54.0927C1484.1 56.5253 1483.69 58.9579 1483.69 61.3904C1483.69 63.823 1483.69 66.0529 1483.69 68.08V79.0266L1481.26 365.462L1601.67 366.678H1630.25C1632.69 366.678 1635.32 366.881 1638.16 367.286C1641 367.286 1643.84 367.489 1646.67 367.894C1649.92 368.3 1652.76 368.705 1655.19 369.111C1657.62 369.516 1660.05 370.124 1662.49 370.935C1666.95 372.151 1670.59 374.178 1673.43 377.016C1677.89 381.071 1680.73 385.125 1681.95 389.179Z" fill="#0EA5E9"/>
<path d="M1302.08 210.994C1313.83 218.697 1323.77 227.819 1331.88 238.36C1340.39 248.496 1347.08 261.064 1351.94 276.065C1357.21 292.687 1359.85 309.513 1359.85 326.541C1360.26 343.163 1357.21 358.772 1350.73 373.368C1344.65 387.558 1334.71 400.126 1320.93 411.073C1307.55 421.614 1289.91 429.114 1268.02 433.574C1256.26 436.412 1242.48 438.642 1226.67 440.263C1210.85 441.885 1196.66 442.696 1184.1 442.696C1168.28 443.101 1151.86 443.101 1134.84 442.696C1118.21 442.696 1102 441.074 1086.19 437.831C1079.29 435.804 1074.23 432.358 1070.98 427.492C1068.14 422.222 1066.12 416.343 1064.9 409.856C1063.28 406.207 1062.47 402.559 1062.47 398.91V53.4847C1062.47 42.1327 1064.7 33.416 1069.16 27.3346C1074.02 20.8477 1080.31 16.1853 1088.01 13.3473C1095.71 10.1039 1104.43 8.27943 1114.16 7.87401C1123.89 7.06314 1134.03 6.65771 1144.57 6.65771C1152.68 6.65771 1160.78 6.65771 1168.89 6.65771C1177.41 6.25228 1185.92 6.25228 1194.43 6.65771C1207.81 7.06313 1221.6 8.2794 1235.79 10.3065C1250.38 11.9283 1264.17 15.1717 1277.14 20.0368C1283.22 22.064 1289.71 24.902 1296.6 28.5508C1303.5 31.7943 1308.97 35.8485 1313.02 40.7137C1326 52.4711 1335.52 66.2557 1341.61 82.0674C1348.09 97.4737 1350.93 113.285 1350.12 129.503C1349.31 145.314 1344.85 160.518 1336.74 175.113C1329.04 189.709 1317.48 201.669 1302.08 210.994ZM1195.65 372.151C1208.22 371.341 1220.99 369.922 1233.96 367.894C1246.94 365.867 1255.86 362.016 1260.72 356.34C1265.99 349.853 1269.64 342.352 1271.67 333.838C1274.1 324.919 1274.71 316 1273.49 307.08C1272.68 297.755 1270.05 289.039 1265.59 280.93C1261.53 272.416 1256.06 265.726 1249.17 260.861C1239.84 253.564 1229.1 248.901 1216.94 246.874C1204.77 244.441 1192.81 243.225 1181.06 243.225C1175.38 243.225 1170.11 243.428 1165.24 243.833C1160.78 243.833 1156.73 244.441 1153.08 245.658C1149.84 246.469 1147.41 248.293 1145.78 251.131C1144.16 253.969 1143.35 258.226 1143.35 263.902C1144.16 274.443 1144.16 284.984 1143.35 295.525C1142.54 306.067 1142.13 316.202 1142.13 325.933C1142.13 331.609 1141.93 337.893 1141.53 344.785C1141.53 351.272 1143.76 356.745 1148.22 361.205C1152.68 365.665 1159.16 368.705 1167.68 370.327C1176.19 371.949 1185.52 372.557 1195.65 372.151ZM1207.81 80.243C1195.25 79.8375 1184.7 79.6348 1176.19 79.6348C1168.08 79.2294 1161.6 79.8375 1156.73 81.4593C1152.27 82.6755 1149.03 85.7162 1147 90.5814C1145.38 95.0411 1144.77 101.933 1145.18 111.258C1145.18 118.961 1144.97 126.665 1144.57 134.368C1144.57 141.665 1144.57 148.963 1144.57 156.261C1144.57 164.369 1147.2 170.451 1152.47 174.505C1157.74 178.154 1164.23 180.384 1171.93 181.195C1180.04 182.005 1188.35 182.005 1196.87 181.195C1205.79 180.384 1213.49 179.37 1219.98 178.154C1234.57 175.721 1245.72 170.856 1253.42 163.558C1261.53 155.855 1266.2 144.706 1267.41 130.111C1269.03 111.866 1264.17 99.2981 1252.82 92.4058C1241.87 85.1081 1226.87 81.0538 1207.81 80.243Z" fill="#0EA5E9"/>
<path d="M963.559 210.994C975.317 218.697 985.249 227.819 993.358 238.36C1001.87 248.496 1008.56 261.064 1013.43 276.065C1018.7 292.687 1021.33 309.513 1021.33 326.541C1021.74 343.163 1018.7 358.772 1012.21 373.368C1006.13 387.558 996.196 400.126 982.412 411.073C969.032 421.614 951.396 429.114 929.503 433.574C917.746 436.412 903.961 438.642 888.149 440.263C872.338 441.885 858.148 442.696 845.579 442.696C829.768 443.101 813.348 443.101 796.32 442.696C779.697 442.696 763.48 441.074 747.668 437.831C740.776 435.804 735.708 432.358 732.465 427.492C729.627 422.222 727.6 416.343 726.383 409.856C724.762 406.207 723.951 402.559 723.951 398.91V53.4847C723.951 42.1327 726.181 33.416 730.641 27.3346C735.506 20.8477 741.79 16.1853 749.493 13.3473C757.196 10.1039 765.913 8.27943 775.643 7.87401C785.373 7.06314 795.509 6.65771 806.05 6.65771C814.159 6.65771 822.267 6.65771 830.376 6.65771C838.89 6.25228 847.404 6.25228 855.918 6.65771C869.297 7.06313 883.082 8.2794 897.272 10.3065C911.867 11.9283 925.652 15.1717 938.625 20.0368C944.707 22.064 951.194 24.902 958.086 28.5508C964.978 31.7943 970.451 35.8485 974.506 40.7137C987.479 52.4711 997.007 66.2557 1003.09 82.0674C1009.58 97.4737 1012.41 113.285 1011.6 129.503C1010.79 145.314 1006.33 160.518 998.223 175.113C990.52 189.709 978.965 201.669 963.559 210.994ZM857.134 372.151C869.702 371.341 882.473 369.922 895.447 367.894C908.421 365.867 917.34 362.016 922.205 356.34C927.476 349.853 931.125 342.352 933.152 333.838C935.585 324.919 936.193 316 934.976 307.08C934.166 297.755 931.53 289.039 927.071 280.93C923.016 272.416 917.543 265.726 910.651 260.861C901.326 253.564 890.582 248.901 878.419 246.874C866.256 244.441 854.296 243.225 842.539 243.225C836.863 243.225 831.592 243.428 826.727 243.833C822.267 243.833 818.213 244.441 814.564 245.658C811.321 246.469 808.888 248.293 807.266 251.131C805.645 253.969 804.834 258.226 804.834 263.902C805.645 274.443 805.645 284.984 804.834 295.525C804.023 306.067 803.618 316.202 803.618 325.933C803.618 331.609 803.415 337.893 803.009 344.785C803.009 351.272 805.239 356.745 809.699 361.205C814.159 365.665 820.646 368.705 829.16 370.327C837.674 371.949 846.998 372.557 857.134 372.151ZM869.297 80.243C856.729 79.8375 846.188 79.6348 837.674 79.6348C829.565 79.2294 823.078 79.8375 818.213 81.4593C813.753 82.6755 810.51 85.7162 808.483 90.5814C806.861 95.0411 806.253 101.933 806.658 111.258C806.658 118.961 806.456 126.665 806.05 134.368C806.05 141.665 806.05 148.963 806.05 156.261C806.05 164.369 808.686 170.451 813.956 174.505C819.227 178.154 825.714 180.384 833.417 181.195C841.525 182.005 849.836 182.005 858.35 181.195C867.27 180.384 874.973 179.37 881.46 178.154C896.055 175.721 907.205 170.856 914.908 163.558C923.016 155.855 927.679 144.706 928.895 130.111C930.517 111.866 925.652 99.2981 914.3 92.4058C903.353 85.1081 888.352 81.0538 869.297 80.243Z" fill="#0EA5E9"/>
<path d="M670.563 38.281C672.995 57.7416 674.414 80.4456 674.82 106.393C675.225 131.935 674.82 157.882 673.603 184.235C672.793 210.183 670.968 234.914 668.13 258.429C665.292 281.538 661.846 300.188 657.792 314.378C654.954 322.892 651.508 331.811 647.453 341.136C643.804 350.055 639.75 358.164 635.29 365.462C628.804 376.408 620.898 386.139 611.573 394.653C602.248 402.761 591.91 409.856 580.558 415.938C569.611 421.614 557.854 426.073 545.285 429.317C533.123 432.56 520.96 434.385 508.797 434.79C487.309 435.601 466.835 432.56 447.374 425.668C428.319 418.37 410.683 407.018 394.466 391.612C382.303 379.854 372.573 367.286 365.275 353.907C357.977 340.528 352.301 326.541 348.247 311.945C344.193 296.944 341.558 281.538 340.341 265.726C339.53 249.915 339.125 233.697 339.125 217.075C339.125 209.372 338.922 199.844 338.517 188.492C338.517 176.735 338.517 164.775 338.517 152.612C338.517 140.044 338.517 127.881 338.517 116.123C338.517 104.366 338.72 94.4329 339.125 86.3243C339.125 81.0537 339.125 75.3777 339.125 69.2963C339.125 62.8094 339.328 56.5253 339.733 50.4439C340.544 43.957 341.76 37.8756 343.382 32.1996C345.004 26.1181 347.436 20.6449 350.68 15.7797C354.329 10.5092 359.396 6.6576 365.883 4.22501C372.37 1.79245 379.06 0.576172 385.952 0.576172C393.25 0.576172 400.142 1.99518 406.629 4.83319C413.116 7.67117 418.386 11.7254 422.441 16.996C424.468 20.2395 425.887 23.4829 426.698 26.7263C427.508 29.9697 428.117 33.6186 428.522 37.6729C429.333 51.052 429.738 66.2556 429.738 83.2836C430.144 100.312 430.144 116.934 429.738 133.151C429.738 148.963 429.536 163.558 429.13 176.938C428.725 190.317 428.522 200.25 428.522 206.736C428.522 231.062 429.738 253.158 432.171 273.024C434.603 292.485 440.279 308.702 449.199 321.675C457.307 333.433 466.835 340.933 477.782 344.177C488.728 347.42 499.675 348.434 510.621 347.217C520.757 346.001 530.893 342.352 541.028 336.271C551.57 329.784 559.881 320.459 565.962 308.296C568.395 303.837 570.422 298.769 572.044 293.093C573.665 287.417 574.882 282.146 575.692 277.281C577.314 261.875 578.733 244.036 579.949 223.765C581.166 203.088 582.179 182.005 582.99 160.518C583.801 139.03 584.206 117.948 584.206 97.2708C584.206 76.594 584.004 57.9443 583.598 41.3217C584.409 34.024 586.639 27.3344 590.288 21.253C593.531 15.9825 598.194 11.32 604.275 7.26572C610.357 3.21144 618.668 1.1843 629.209 1.1843C637.723 1.58972 644.615 3.8196 649.886 7.8739C655.156 11.5228 659.413 15.577 662.657 20.0367C666.306 25.3073 668.941 31.3887 670.563 38.281Z" fill="#0EA5E9"/>
<path d="M239.608 210.994C251.366 218.697 261.299 227.819 269.407 238.36C277.921 248.496 284.611 261.064 289.476 276.065C294.746 292.687 297.382 309.513 297.382 326.541C297.787 343.163 294.746 358.772 288.26 373.368C282.178 387.558 272.245 400.126 258.461 411.073C245.081 421.614 227.445 429.114 205.552 433.574C193.795 436.412 180.01 438.642 164.198 440.263C148.387 441.885 134.197 442.696 121.629 442.696C105.817 443.101 89.397 443.101 72.369 442.696C55.7464 442.696 39.5293 441.074 23.7176 437.831C16.8253 435.804 11.7574 432.358 8.514 427.492C5.676 422.222 3.64886 416.343 2.43257 409.856C0.810858 406.207 0 402.559 0 398.91V53.4847C0 42.1327 2.22986 33.416 6.68957 27.3346C11.5547 20.8477 17.8388 16.1853 25.542 13.3473C33.2451 10.1039 41.9618 8.27943 51.6921 7.87401C61.4224 7.06314 71.5581 6.65771 82.0992 6.65771C90.2078 6.65771 98.3164 6.65771 106.425 6.65771C114.939 6.25228 123.453 6.25228 131.967 6.65771C145.346 7.06313 159.131 8.2794 173.321 10.3065C187.916 11.9283 201.701 15.1717 214.674 20.0368C220.756 22.064 227.243 24.902 234.135 28.5508C241.027 31.7943 246.5 35.8485 250.555 40.7137C263.528 52.4711 273.056 66.2557 279.137 82.0674C285.624 97.4737 288.462 113.285 287.651 129.503C286.841 145.314 282.381 160.518 274.272 175.113C266.569 189.709 255.014 201.669 239.608 210.994ZM133.183 372.151C145.752 371.341 158.523 369.922 171.496 367.894C184.47 365.867 193.389 362.016 198.254 356.34C203.525 349.853 207.174 342.352 209.201 333.838C211.634 324.919 212.242 316 211.025 307.08C210.215 297.755 207.579 289.039 203.12 280.93C199.065 272.416 193.592 265.726 186.7 260.861C177.375 253.564 166.631 248.901 154.468 246.874C142.305 244.441 130.345 243.225 118.588 243.225C112.912 243.225 107.641 243.428 102.776 243.833C98.3164 243.833 94.2621 244.441 90.6132 245.658C87.3698 246.469 84.9372 248.293 83.3155 251.131C81.6938 253.969 80.883 258.226 80.883 263.902C81.6938 274.443 81.6938 284.984 80.883 295.525C80.0721 306.067 79.6667 316.202 79.6667 325.933C79.6667 331.609 79.464 337.893 79.0585 344.785C79.0585 351.272 81.2884 356.745 85.7481 361.205C90.2078 365.665 96.6947 368.705 105.209 370.327C113.723 371.949 123.048 372.557 133.183 372.151ZM145.346 80.243C132.778 79.8375 122.237 79.6348 113.723 79.6348C105.614 79.2294 99.1272 79.8375 94.2621 81.4593C89.8024 82.6755 86.559 85.7162 84.5318 90.5814C82.9101 95.0411 82.302 101.933 82.7074 111.258C82.7074 118.961 82.5047 126.665 82.0992 134.368C82.0992 141.665 82.0992 148.963 82.0992 156.261C82.0992 164.369 84.7345 170.451 90.0051 174.505C95.2757 178.154 101.763 180.384 109.466 181.195C117.574 182.005 125.886 182.005 134.4 181.195C143.319 180.384 151.022 179.37 157.509 178.154C172.104 175.721 183.254 170.856 190.957 163.558C199.065 155.855 203.728 144.706 204.944 130.111C206.566 111.866 201.701 99.2981 190.349 92.4058C179.402 85.1081 164.401 81.0538 145.346 80.243Z" fill="#0EA5E9"/>
</svg>
